<?xml version="1.0" standalone="no"?>
<!DOCTYPE svg PUBLIC "-//W3C//DTD SVG 20010904//EN"
 "http://www.w3.org/TR/2001/REC-SVG-20010904/DTD/svg10.dtd">
<svg version="1.0" xmlns="http://www.w3.org/2000/svg"
 width="512.000000pt" height="512.000000pt" viewBox="0 0 512.000000 512.000000"
 preserveAspectRatio="xMidYMid meet">
<metadata>
Created by potrace 1.14, written by Peter Selinger 2001-2017
</metadata>
<g transform="translate(0.000000,512.000000) scale(0.100000,-0.100000)"
fill="#000000" stroke="none">
<path d="M2509 5087 c-14 -8 -86 -49 -160 -92 -74 -43 -143 -83 -154 -89 -11
-6 -31 -19 -45 -27 -19 -13 -439 -257 -677 -395 -97 -56 -554 -324 -606 -356
-34 -20 -75 -44 -92 -53 -16 -8 -39 -21 -50 -28 -11 -6 -84 -49 -161 -95 -78
-45 -152 -94 -165 -108 l-24 -26 0 -1258 0 -1258 25 -27 c14 -15 41 -36 60
-46 19 -11 53 -31 75 -44 22 -14 47 -28 55 -32 8 -4 44 -25 80 -46 36 -22 90
-54 120 -71 30 -18 70 -41 88 -51 178 -106 265 -155 273 -155 5 0 9 -4 9 -9 0
-5 8 -11 18 -14 16 -6 79 -41 127 -71 18 -12 517 -304 590 -346 17 -10 81 -47
143 -84 62 -36 132 -77 155 -90 23 -13 105 -61 182 -106 118 -70 147 -83 185
-84 41 0 90 26 605 329 308 180 596 348 640 373 44 25 87 51 95 57 8 7 38 25
65 40 202 109 732 426 755 450 l25 27 0 1258 0 1258 -25 27 c-21 23 -94 68
-345 213 -33 19 -73 43 -90 53 -16 10 -39 23 -50 29 -11 5 -38 21 -60 35 -22
14 -49 29 -60 35 -21 10 -39 21 -217 126 -866 509 -1298 757 -1328 761 -19 2
-47 -2 -61 -10z"/>
</g>
</svg>
